<svg width="1200" height="630" viewBox="0 0 1200 630" xmlns="http://www.w3.org/2000/svg">
<defs>
  <linearGradient id="bg" x1="0%" y1="0%" x2="100%" y2="100%">
    <stop offset="0%" style="stop-color:#020817"/>
    <stop offset="50%" style="stop-color:#0a1628"/>
    <stop offset="100%" style="stop-color:#020817"/>
  </linearGradient>
  <linearGradient id="blue" x1="0%" y1="0%" x2="100%" y2="0%">
    <stop offset="0%" style="stop-color:#2563eb"/>
    <stop offset="100%" style="stop-color:#06b6d4"/>
  </linearGradient>
  <linearGradient id="glow" x1="0%" y1="0%" x2="0%" y2="100%">
    <stop offset="0%" style="stop-color:#2563eb;stop-opacity:0.3"/>
    <stop offset="100%" style="stop-color:#2563eb;stop-opacity:0"/>
  </linearGradient>
</defs>
<rect width="1200" height="630" fill="url(#bg)"/>
<circle cx="200" cy="150" r="300" fill="#1d4ed8" opacity="0.08"/>
<circle cx="1050" cy="500" r="250" fill="#0891b2" opacity="0.08"/>
<circle cx="600" cy="630" r="200" fill="#2563eb" opacity="0.06"/>
<rect x="0" y="0" width="6" height="630" fill="url(#blue)"/>
<rect x="40" y="50" width="180" height="36" rx="18" fill="#1e3a5f" stroke="#2563eb" stroke-width="1" opacity="0.8"/>
<text x="130" y="73" text-anchor="middle" font-family="system-ui, sans-serif" font-size="13" font-weight="600" fill="#60a5fa" letter-spacing="2">AI AUTOMATION</text>
<text x="60" y="200" font-family="system-ui, sans-serif" font-size="82" font-weight="900" fill="#ffffff" letter-spacing="-2">AutoFlow</text>
<text x="60" y="295" font-family="system-ui, sans-serif" font-size="82" font-weight="900" fill="url(#blue)" letter-spacing="-2">AI</text>
<rect x="60" y="330" width="500" height="3" rx="2" fill="url(#blue)" opacity="0.6"/>
<text x="60" y="390" font-family="system-ui, sans-serif" font-size="28" font-weight="400" fill="#94a3b8">Automate Your Business.</text>
<text x="60" y="430" font-family="system-ui, sans-serif" font-size="28" font-weight="400" fill="#94a3b8">Save Hundreds Of Hours Every Month.</text>
<text x="60" y="560" font-family="system-ui, sans-serif" font-size="18" font-weight="500" fill="#475569" letter-spacing="1">autoflowai365.vercel.app</text>
<rect x="750" y="80" width="380" height="460" rx="20" fill="#0f172a" stroke="#1e3a5f" stroke-width="1.5" opacity="0.9"/>
<rect x="750" y="80" width="380" height="460" rx="20" fill="url(#glow)" opacity="0.5"/>
<text x="940" y="145" text-anchor="middle" font-family="system-ui, sans-serif" font-size="11" font-weight="600" fill="#64748b" letter-spacing="2">AUTOMATION RUNNING</text>
<circle cx="1110" cy="135" r="6" fill="#22c55e" opacity="0.9"/>
<circle cx="1110" cy="135" r="10" fill="#22c55e" opacity="0.2"/>
<rect x="770" y="165" width="340" height="52" rx="10" fill="#0f2040" stroke="#1e3a5f" stroke-width="1"/>
<text x="800" y="193" font-family="system-ui, sans-serif" font-size="13" fill="#94a3b8">Lead Captured</text>
<text x="1090" y="193" text-anchor="end" font-family="system-ui, sans-serif" font-size="13" font-weight="600" fill="#22c55e">✓</text>
<rect x="770" y="228" width="340" height="52" rx="10" fill="#0f2040" stroke="#1e3a5f" stroke-width="1"/>
<text x="800" y="256" font-family="system-ui, sans-serif" font-size="13" fill="#94a3b8">AI Qualified Lead</text>
<text x="1090" y="256" text-anchor="end" font-family="system-ui, sans-serif" font-size="13" font-weight="600" fill="#22c55e">✓</text>
<rect x="770" y="291" width="340" height="52" rx="10" fill="#0f2040" stroke="#1e3a5f" stroke-width="1"/>
<text x="800" y="319" font-family="system-ui, sans-serif" font-size="13" fill="#94a3b8">CRM Updated</text>
<text x="1090" y="319" text-anchor="end" font-family="system-ui, sans-serif" font-size="13" font-weight="600" fill="#22c55e">✓</text>
<rect x="770" y="354" width="340" height="52" rx="10" fill="#0f2040" stroke="#1e3a5f" stroke-width="1"/>
<text x="800" y="382" font-family="system-ui, sans-serif" font-size="13" fill="#94a3b8">WhatsApp Sent</text>
<text x="1090" y="382" text-anchor="end" font-family="system-ui, sans-serif" font-size="13" font-weight="600" fill="#22c55e">✓</text>
<rect x="770" y="417" width="340" height="52" rx="10" fill="#0f2040" stroke="#1e3a5f" stroke-width="1"/>
<text x="800" y="445" font-family="system-ui, sans-serif" font-size="13" fill="#94a3b8">Appointment Booked</text>
<text x="1090" y="445" text-anchor="end" font-family="system-ui, sans-serif" font-size="13" font-weight="600" fill="#22c55e">✓</text>
<rect x="770" y="490" width="340" height="36" rx="8" fill="#1e3a5f" stroke="#2563eb" stroke-width="1"/>
<text x="940" y="513" text-anchor="middle" font-family="system-ui, sans-serif" font-size="13" font-weight="600" fill="#60a5fa">All tasks completed in 0.3s</text>
</svg>
